# xmcd CD database file
#
# Track frame offsets:
#	150
#	22705
#	53365
#	71242
#	88830
#	104407
#	119620
#	161685
#	181310
#
# Disc length: 2769 seconds
#
# Revision: 1
# Processed by: cddbd v1.5.1PL0 Copyright (c) Steve Scherf et al.
# Submitted via: CDex 1.51
#
DISCID=710acf09
DTITLE=Dirty Dozen Brass Band - Voodoo
DYEAR=1989
DGENRE=Jazz
TTITLE0=It's All Over Now (with Dr. John)
TTITLE1=Voodoo
TTITLE2=Oop Pop A Dah (with Dizzy Gillespie)
TTITLE3=Gemini Rising
TTITLE4=Moose The Mooche (with Brandford Marsalis)
TTITLE5=Don't Drive Drunk
TTITLE6=Black Drawers/Blue Piccolo
TTITLE7=Santa Cruz
TTITLE8=Come On Home
EXTD=YEAR: 1989
EXTT0=
EXTT1=
EXTT2=
EXTT3=
EXTT4=
EXTT5=
EXTT6=
EXTT7=
EXTT8=
PLAYORDER=
